HIERARCHY
ROOT Hips
{
    OFFSET 0.000000 0.000000 0.000000
    CHANNELS 6 Xposition Yposition Zposition Zrotation Xrotation Yrotation
    JOINT Spine
    {
        OFFSET -0.000000 0.084000 0.000000
        CHANNELS 3 Zrotation Xrotation Yrotation
        JOINT Spine1
        {
            OFFSET -0.000000 0.216247 0.000000
            CHANNELS 3 Zrotation Xrotation Yrotation
            JOINT Neck
            {
                OFFSET -0.000000 0.215359 0.019578
                CHANNELS 3 Zrotation Xrotation Yrotation
                JOINT Head
                {
                    OFFSET -0.000000 0.143414 -0.020488
                    CHANNELS 3 Zrotation Xrotation Yrotation
                    End Site
                    {
                        OFFSET -0.000000 0.204877 0.000000
                    }
                }
            }
            JOINT LeftShoulder
            {
                OFFSET 0.040109 0.191272 -0.003631
                CHANNELS 3 Zrotation Xrotation Yrotation
                JOINT LeftArm
                {
                    OFFSET 0.138349 0.000000 0.000000
                    CHANNELS 3 Zrotation Xrotation Yrotation
                    JOINT LeftForeArm
                    {
                        OFFSET 0.335349 0.000000 0.000000
                        CHANNELS 3 Zrotation Xrotation Yrotation
                        JOINT LeftHand
                        {
                            OFFSET 0.276368 0.000000 0.000000
                            CHANNELS 3 Zrotation Xrotation Yrotation
                            End Site
                            {
                                OFFSET 0.153658 0.000000 0.000000
                            }
                        }
                    }
                }
            }
            JOINT RightShoulder
            {
                OFFSET -0.041533 0.191272 -0.003631
                CHANNELS 3 Zrotation Xrotation Yrotation
                JOINT RightArm
                {
                    OFFSET -0.138349 0.000000 0.000000
                    CHANNELS 3 Zrotation Xrotation Yrotation
                    JOINT RightForeArm
                    {
                        OFFSET -0.335349 0.000000 0.000000
                        CHANNELS 3 Zrotation Xrotation Yrotation
                        JOINT RightHand
                        {
                            OFFSET -0.276368 0.000000 0.000000
                            CHANNELS 3 Zrotation Xrotation Yrotation
                            End Site
                            {
                                OFFSET -0.153658 0.000000 0.000000
                            }
                        }
                    }
                }
            }
        }
    }
    JOINT LeftUpLeg
    {
        OFFSET 0.102438 0.000000 0.000000
        CHANNELS 3 Zrotation Xrotation Yrotation
        JOINT LeftLeg
        {
            OFFSET -0.000000 -0.442852 0.000000
            CHANNELS 3 Zrotation Xrotation Yrotation
            JOINT LeftFoot
            {
                OFFSET -0.000000 -0.461647 0.000000
                CHANNELS 3 Zrotation Xrotation Yrotation
                JOINT LeftToeBase
                {
                    OFFSET -0.000000 -0.066585 0.153658
                    CHANNELS 3 Zrotation Xrotation Yrotation
                    End Site
                    {
                        OFFSET -0.000000 0.000000 0.040975
                    }
                }
            }
        }
    }
    JOINT RightUpLeg
    {
        OFFSET -0.102438 0.000000 0.000000
        CHANNELS 3 Zrotation Xrotation Yrotation
        JOINT RightLeg
        {
            OFFSET -0.000000 -0.442852 0.000000
            CHANNELS 3 Zrotation Xrotation Yrotation
            JOINT RightFoot
            {
                OFFSET -0.000000 -0.461647 0.000000
                CHANNELS 3 Zrotation Xrotation Yrotation
                JOINT RightToeBase
                {
                    OFFSET -0.000000 -0.066585 0.153658
                    CHANNELS 3 Zrotation Xrotation Yrotation
                    End Site
                    {
                        OFFSET -0.000000 0.000000 0.040975
                    }
                }
            }
        }
    }
}
MOTION
Frames:    10
Frame Time:    0.010000
-0.530736    0.440465    0.163408    -3.937591    -4.578427    -7.618443    -1.662823    7.025994    -2.866162    -9.838902    23.046366    1.033374    -6.807128    9.509868    4.227033    10.565635    -2.590501    6.569659    7.765475    -5.040190    -8.129453    3.223603    15.482041    -47.582958    -15.282105    -44.957222    -81.989563    5.310777    -53.556095    4.351894    -14.204751    -9.234873    19.445244    7.706458    1.160322    19.982237    -3.075016    -25.404432    3.348069    -7.243766    -25.049057    -4.783652    154.839493    -64.117119    137.595795    -133.630554    67.737907    120.595703    -5.487122    -20.613300    0.206379    0.000000    0.000000    0.000000    169.402695    -69.209473    168.710083    131.705856    76.617233    -142.234512    -11.144734    -15.657506    -2.296829    0.000000    0.000000    0.000000    
-0.530650    0.440456    0.163498    -3.959241    -4.591754    -7.659681    -1.782964    6.989584    -2.967793    -9.689633    23.055828    0.966953    -6.855751    9.584394    4.133067    10.550303    -2.582748    6.467229    7.753009    -4.986828    -8.141467    3.182714    15.485100    -47.335548    -15.347270    -44.945210    -82.008904    5.340605    -53.582767    4.355614    -14.154385    -9.050911    19.237823    8.208236    0.754172    19.408300    -3.045788    -25.417366    3.220661    -7.298337    -25.061073    -4.830722    154.732941    -64.095177    137.486572    -133.684082    67.722862    120.664581    -5.520590    -20.614946    0.204370    0.000000    0.000000    0.000000    169.328903    -69.217125    168.617706    131.714401    76.611649    -142.243011    -11.140887    -15.650711    -2.282291    0.000000    0.000000    0.000000    
-0.530564    0.440450    0.163595    -3.979969    -4.608098    -7.698346    -1.899449    6.957810    -3.067040    -9.545387    23.062025    0.902084    -6.893356    9.666757    4.040138    10.521748    -2.588561    6.363642    7.746934    -4.930223    -8.159451    3.139525    15.490775    -47.083824    -15.415304    -44.941486    -82.041603    5.368151    -53.619602    4.365085    -14.098652    -8.870872    19.034327    8.707529    0.322275    18.829350    -2.998794    -25.440474    3.112772    -7.444837    -25.076929    -4.923233    154.627670    -64.077126    137.380585    -133.738007    67.707687    120.732292    -5.565240    -20.619781    0.207556    0.000000    0.000000    0.000000    169.255356    -69.228127    168.527100    131.729034    76.606514    -142.253403    -11.137526    -15.644360    -2.271006    0.000000    0.000000    0.000000    
-0.530480    0.440445    0.163692    -4.000312    -4.625691    -7.736132    -2.011091    6.929253    -3.163318    -9.407603    23.064342    0.839289    -6.920882    9.758629    3.950035    10.480204    -2.610594    6.261014    7.744586    -4.874086    -8.181828    3.098539    15.504449    -46.830280    -15.480079    -44.948975    -82.082588    5.401446    -53.664730    4.393371    -14.038877    -8.695897    18.837509    9.201697    -0.108270    18.243986    -2.943816    -25.492949    3.023769    -7.656217    -25.117367    -5.044618    154.521439    -64.060562    137.274918    -133.793015    67.692322    120.801910    -5.615406    -20.626945    0.209862    0.000000    0.000000    0.000000    169.178558    -69.240601    168.435211    131.741501    76.601357    -142.259277    -11.135303    -15.638226    -2.262173    0.000000    0.000000    0.000000    
-0.530399    0.440441    0.163789    -4.020571    -4.643745    -7.774308    -2.117054    6.902629    -3.257850    -9.276772    23.064013    0.778487    -6.951388    9.850413    3.863926    10.442018    -2.634172    6.163323    7.742055    -4.823114    -8.205415    3.062109    15.528316    -46.575706    -15.541391    -44.965420    -82.129128    5.448262    -53.715248    4.447559    -13.978347    -8.528772    18.649609    9.690281    -0.509858    17.652292    -2.897795    -25.566195    2.935448    -7.822645    -25.180895    -5.147418    154.412430    -64.043694    137.167221    -133.848587    67.677055    120.873901    -5.662215    -20.633633    0.206588    0.000000    0.000000    0.000000    169.095825    -69.253624    168.338104    131.751144    76.596870    -142.261871    -11.133667    -15.632159    -2.254372    0.000000    0.000000    0.000000    
-0.530318    0.440436    0.163887    -4.040888    -4.662442    -7.813864    -2.217412    6.876859    -3.351860    -9.152904    23.062904    0.719325    -6.988874    9.938259    3.781806    10.410727    -2.653137    6.071157    7.737336    -4.777313    -8.228045    3.030131    15.559799    -46.319046    -15.603530    -44.987411    -82.181396    5.498582    -53.771721    4.499354    -13.918267    -8.369742    18.469164    10.173209    -0.869954    17.058920    -2.874991    -25.643732    2.836115    -7.866177    -25.256081    -5.205589    154.298950    -64.025887    137.056015    -133.905701    67.661942    120.946297    -5.709216    -20.641926    0.202796    0.000000    0.000000    0.000000    169.005753    -69.266945    168.233185    131.761200    76.593323    -142.263931    -11.132011    -15.626867    -2.247514    0.000000    0.000000    0.000000    
-0.530235    0.440432    0.163987    -4.060785    -4.681507    -7.855407    -2.312998    6.851044    -3.446229    -9.036534    23.061588    0.661699    -7.024233    10.023287    3.703582    10.372909    -2.668935    5.981584    7.730848    -4.734236    -8.249058    3.000196    15.595040    -46.058567    -15.665051    -45.010494    -82.238152    5.547810    -53.830139    4.524359    -13.857940    -8.217158    18.293137    10.651683    -1.191936    16.471098    -2.877869    -25.724430    2.726683    -7.865995    -25.335672    -5.266303    154.178757    -64.006607    136.939667    -133.964737    67.646629    121.019211    -5.756200    -20.652584    0.199193    0.000000    0.000000    0.000000    168.907883    -69.280205    168.120804    131.770554    76.590012    -142.263962    -11.130471    -15.623535    -2.241567    0.000000    0.000000    0.000000    
-0.530147    0.440430    0.164091    -4.079684    -4.701077    -7.899013    -2.404254    6.825549    -3.542307    -8.928988    23.058760    0.605359    -7.049785    10.107121    3.630111    10.317757    -2.681371    5.893228    7.724090    -4.690461    -8.267850    2.968302    15.628874    -45.793076    -15.717518    -45.029926    -82.294868    5.591108    -53.881367    4.529495    -13.797462    -8.072775    18.122375    11.131613    -1.481528    15.890677    -2.908604    -25.818415    2.604534    -7.887505    -25.426365    -5.343863    154.050186    -63.985672    136.816849    -134.025528    67.630707    121.095024    -5.795105    -20.662575    0.191242    0.000000    0.000000    0.000000    168.803101    -69.293594    168.003204    131.777588    76.586006    -142.260757    -11.128996    -15.623122    -2.236022    0.000000    0.000000    0.000000    
-0.530052    0.440430    0.164201    -4.096992    -4.721191    -7.944405    -2.490802    6.800529    -3.642003    -8.832243    23.052940    0.549833    -7.066257    10.191295    3.561816    10.243984    -2.690009    5.806220    7.717480    -4.641421    -8.283998    2.930568    15.652338    -45.519516    -15.762126    -45.038055    -82.350914    5.610777    -53.920052    4.513539    -13.737054    -7.936287    17.957268    11.617530    -1.765894    15.320125    -2.957569    -25.934191    2.463015    -7.942233    -25.538824    -5.402503    153.913101    -63.963276    136.688080    -134.089310    67.614113    121.173836    -5.824920    -20.670990    0.179269    0.000000    0.000000    0.000000    168.693512    -69.307098    167.882965    131.783295    76.580795    -142.254501    -11.128606    -15.625586    -2.231343    0.000000    0.000000    0.000000    
-0.529948    0.440435    0.164316    -4.112445    -4.741275    -7.991271    -2.572047    6.774446    -3.748247    -8.747593    23.045126    0.494646    -7.084754    10.276276    3.498404    10.161454    -2.697308    5.722737    7.708930    -4.586189    -8.297648    2.888205    15.664467    -45.233299    -15.802120    -45.034027    -82.408691    5.597984    -53.947849    4.470718    -13.675536    -7.800848    17.795559    12.102038    -2.075432    14.767011    -3.001607    -26.069693    2.306059    -8.063173    -25.669300    -5.452117    153.768051    -63.939053    136.554474    -134.157822    67.597061    121.253883    -5.844653    -20.679258    0.166881    0.000000    0.000000    0.000000    168.580780    -69.320557    167.761200    131.788925    76.574944    -142.245758    -11.131025    -15.630633    -2.229234    0.000000    0.000000    0.000000    
